HIERARCHY
ROOT Hips
{
	OFFSET 0.000000 0.000000 0.000000
	CHANNELS 6 Xposition Yposition Zposition Zrotation Yrotation Xrotation 
	JOINT LHipJoint
	{
		OFFSET 0.000000 0.000000 0.000000
		CHANNELS 3 Zrotation Yrotation Xrotation
		JOINT LeftUpLeg
		{
			OFFSET 1.363060 -1.794630 0.839290
			CHANNELS 3 Zrotation Yrotation Xrotation
			JOINT LeftLeg
			{
				OFFSET 2.448110 -6.726130 0.000000
				CHANNELS 3 Zrotation Yrotation Xrotation
				JOINT LeftFoot
				{
					OFFSET 2.562200 -7.039590 0.000000
					CHANNELS 3 Zrotation Yrotation Xrotation
					JOINT LeftToeBase
					{
						OFFSET 0.157640 -0.433110 2.322550
						CHANNELS 3 Zrotation Yrotation Xrotation
						End Site
						{
							OFFSET 0.000000 0.000000 0.000000
						}
					}
				}
			}
		}
	}
	JOINT RHipJoint
	{
		OFFSET 0.000000 0.000000 0.000000
		CHANNELS 3 Zrotation Yrotation Xrotation
		JOINT RightUpLeg
		{
			OFFSET -1.305520 -1.794630 0.839290
			CHANNELS 3 Zrotation Yrotation Xrotation
			JOINT RightLeg
			{
				OFFSET -2.542530 -6.985550 0.000000
				CHANNELS 3 Zrotation Yrotation Xrotation
				JOINT RightFoot
				{
					OFFSET -2.568260 -7.056230 0.000000
					CHANNELS 3 Zrotation Yrotation Xrotation
					JOINT RightToeBase
					{
						OFFSET -0.164730 -0.452590 2.363150
						CHANNELS 3 Zrotation Yrotation Xrotation
						End Site
						{
							OFFSET 0.000000 0.000000 0.000000
						}
					}
				}
			}
		}
	}
	JOINT LowerBack
	{
		OFFSET 0.000000 0.000000 0.000000
		CHANNELS 3 Zrotation Yrotation Xrotation
		JOINT Spine
		{
			OFFSET 0.028270 2.035590 -0.193380
			CHANNELS 3 Zrotation Yrotation Xrotation
			JOINT Spine1
			{
				OFFSET 0.056720 2.048850 -0.042750
				CHANNELS 3 Zrotation Yrotation Xrotation
				JOINT Neck
				{
					OFFSET 0.000000 0.000000 0.000000
					CHANNELS 3 Zrotation Yrotation Xrotation
					JOINT Neck1
					{
						OFFSET -0.054170 1.746240 0.172020
						CHANNELS 3 Zrotation Yrotation Xrotation
						JOINT Head
						{
							OFFSET 0.104070 1.761360 -0.123970
							CHANNELS 3 Zrotation Yrotation Xrotation
							End Site
							{
								OFFSET 0.000000 0.000000 0.000000
							}
						}
					}
				}
				JOINT LeftShoulder
				{
					OFFSET 0.000000 0.000000 0.000000
					CHANNELS 3 Zrotation Yrotation Xrotation
					JOINT LeftArm
					{
						OFFSET 3.362410 1.200890 -0.311210
						CHANNELS 3 Zrotation Yrotation Xrotation
						JOINT LeftForeArm
						{
							OFFSET 4.983000 -0.000000 -0.000000
							CHANNELS 3 Zrotation Yrotation Xrotation
							JOINT LeftHand
							{
								OFFSET 3.483560 -0.000000 -0.000000
								CHANNELS 3 Zrotation Yrotation Xrotation
								JOINT LeftFingerBase
								{
									OFFSET 0.000000 0.000000 0.000000
									CHANNELS 3 Zrotation Yrotation Xrotation
									JOINT LeftHandIndex1
									{
										OFFSET 0.715260 -0.000000 -0.000000
										CHANNELS 3 Zrotation Yrotation Xrotation
										End Site
										{
											OFFSET 0.000000 0.000000 0.000000
										}
									}
								}
								JOINT LThumb
								{
									OFFSET 0.000000 0.000000 0.000000
									CHANNELS 3 Zrotation Yrotation Xrotation
									End Site
									{
										OFFSET 0.000000 0.000000 0.000000
									}
								}
							}
						}
					}
				}
				JOINT RightShoulder
				{
					OFFSET 0.000000 0.000000 0.000000
					CHANNELS 3 Zrotation Yrotation Xrotation
					JOINT RightArm
					{
						OFFSET -3.136600 1.374050 -0.404650
						CHANNELS 3 Zrotation Yrotation Xrotation
						JOINT RightForeArm
						{
							OFFSET -5.241900 -0.000000 -0.000000
							CHANNELS 3 Zrotation Yrotation Xrotation
							JOINT RightHand
							{
								OFFSET -3.444170 -0.000000 -0.000000
								CHANNELS 3 Zrotation Yrotation Xrotation
								JOINT RightFingerBase
								{
									OFFSET 0.000000 0.000000 0.000000
									CHANNELS 3 Zrotation Yrotation Xrotation
									JOINT RightHandIndex1
									{
										OFFSET -0.622530 -0.000000 -0.000000
										CHANNELS 3 Zrotation Yrotation Xrotation
										End Site
										{
											OFFSET 0.000000 0.000000 0.000000
										}
									}
								}
								JOINT RThumb
								{
									OFFSET 0.000000 0.000000 0.000000
									CHANNELS 3 Zrotation Yrotation Xrotation
									End Site
									{
										OFFSET 0.000000 0.000000 0.000000
									}
								}
							}
						}
					}
				}
			}
		}
	}
}
MOTION
Frames: 9
Frame Time: 0.008333
4.917132 16.325225 -21.380781 179.152776 -7.758700 -174.899970 3.048630 16.080241 5.101467 -13.672196 -12.186536 -17.961990 -3.497240 5.852513 48.929352 -1.928138 -3.206170 0.559805 -12.366266 -19.391735 -11.176613 2.299965 -21.070114 13.576868 13.820515 20.036280 -47.373319 2.050798 7.002865 29.568489 7.472904 7.735265 1.746041 -5.549446 -7.097651 14.128086 -3.686486 0.032660 -4.810712 3.930274 0.336145 -2.310021 -3.158500 -0.662430 15.819710 0.708135 -0.066107 -17.810512 2.729811 0.121532 26.633954 -4.605540 5.229564 19.819230 6.853061 3.754935 2.092695 -80.771646 -31.994467 -0.200033 -13.054002 -16.267917 18.385194 11.236938 -19.363676 0.641670 0.000002 -0.000001 0.000002 -0.000000 0.000000 -0.000000 0.000000 0.000000 0.000000 -0.737018 0.443170 4.642850 68.774729 18.265586 -16.601047 24.178772 23.962722 19.336734 -0.884527 12.330591 1.624965 -0.000005 0.000004 -0.000002 -0.000000 -0.000000 0.000000 -0.000000 -0.000000 0.000000 
4.959520 16.335135 -21.521622 179.691336 -8.120327 -175.184653 3.067170 16.285243 5.475620 -12.686489 -12.695762 -19.562829 -2.509165 6.956542 50.496447 -2.137007 -2.470435 3.714337 -13.358388 -20.979221 -12.460018 2.467669 -21.354764 13.497540 14.901540 19.585747 -46.687216 1.944461 7.063564 30.345321 7.140047 8.085641 1.019297 -5.563641 -5.652348 13.462479 -3.779213 0.082807 -4.983506 4.153621 0.400686 -2.140039 -3.245259 -0.427885 15.820336 1.086327 -0.066466 -17.615626 2.813693 0.050370 26.671979 -4.658833 5.210844 19.567042 7.213351 3.778615 2.096076 -81.040814 -31.338457 -0.608056 -12.922159 -15.888367 17.620584 11.727243 -18.608073 0.524777 0.000002 -0.000001 0.000002 -0.000000 -0.000000 0.000000 0.000000 0.000000 -0.000000 -0.360714 0.602883 4.726560 68.884630 18.288493 -16.440439 24.161071 23.898834 18.687462 -0.088619 11.900514 1.665486 -0.000005 0.000004 -0.000002 0.000000 0.000000 0.000000 0.000000 0.000000 0.000000 
5.003393 16.335435 -21.660360 -179.775754 -8.567640 -175.408854 3.238138 16.520015 5.645476 -11.975790 -13.213541 -20.979074 -1.208512 8.067957 51.964123 -2.392251 -1.844579 6.958017 -13.154596 -19.972024 -13.155808 2.447711 -21.607372 13.555399 15.846379 19.454082 -46.152432 1.664248 6.569824 30.975441 6.896975 8.598662 0.323072 -5.709570 -4.697933 13.259255 -3.882195 0.041529 -5.155812 4.334234 0.374718 -2.020932 -3.081915 -0.428911 16.002962 1.226450 -0.003036 -17.591718 2.901442 0.103040 26.598208 -4.128969 5.240178 19.084629 7.398250 4.205374 2.093877 -81.411903 -30.842991 -1.167528 -12.883811 -15.473831 16.442311 12.154805 -17.377397 0.402435 0.000002 -0.000001 0.000002 -0.000000 0.000000 -0.000000 0.000000 0.000000 -0.000000 -0.377060 0.914842 4.769880 69.082697 18.490861 -16.388588 24.223155 23.818439 19.082167 -1.064057 11.941847 1.551321 -0.000005 0.000004 -0.000002 0.000000 0.000000 -0.000000 -0.000000 -0.000000 -0.000000 
5.043228 16.331682 -21.784234 -179.217131 -8.966187 -175.734161 3.432643 16.465950 5.733833 -11.243616 -13.621794 -22.211287 -0.200998 9.079121 53.433387 -2.271860 -0.756836 10.079344 -12.624032 -17.328178 -14.681882 2.203764 -21.523241 13.255794 16.951038 19.205194 -45.008173 1.355498 5.801649 31.408673 6.860568 9.009558 -0.403693 -5.180062 -5.160037 12.521162 -3.826808 0.024838 -4.964950 4.416872 0.529136 -2.045380 -2.684405 -0.350988 16.052282 1.116980 -0.032282 -17.549671 3.012760 0.061124 26.469434 -4.211859 5.239790 19.090042 7.396524 4.393920 2.153818 -81.777337 -30.433034 -1.892872 -12.890577 -15.032914 15.485816 12.112461 -16.498755 0.380773 0.000002 -0.000001 0.000002 -0.000000 0.000000 -0.000000 -0.000000 -0.000000 -0.000000 -0.649842 1.006500 4.698643 69.306966 18.562698 -16.289457 24.281102 23.757596 19.274650 -1.461757 12.060682 1.519528 -0.000005 0.000004 -0.000002 0.000000 -0.000000 0.000000 0.000000 0.000000 -0.000000 
5.071937 16.324775 -21.910811 -178.641468 -9.387375 -176.002747 3.598254 16.365005 5.896919 -10.458198 -14.158259 -23.555912 -0.032525 9.509166 55.109549 -1.522381 1.259635 12.814821 -12.011075 -14.843244 -15.560628 1.716619 -21.424119 13.002077 18.481480 18.746171 -43.880467 1.262057 5.573365 32.008034 6.571243 9.131450 -1.200985 -4.912056 -5.337167 12.118632 -3.572227 0.119285 -4.899299 4.380351 0.778347 -2.048600 -2.530752 -0.041492 16.021289 1.206635 -0.081953 -17.413822 3.227627 -0.055785 26.324902 -4.863566 5.502019 18.928601 7.720591 4.161473 2.179176 -82.140283 -29.912097 -2.648294 -12.898285 -14.602906 14.708857 12.127833 -15.827212 0.354429 0.000002 -0.000001 0.000002 -0.000000 0.000000 0.000000 0.000000 0.000000 0.000000 -0.679382 0.719635 4.692217 69.548805 18.576542 -16.055683 24.311816 23.750539 18.464952 -0.781473 11.486537 1.525215 -0.000005 0.000004 -0.000002 -0.000000 0.000000 0.000000 -0.000000 -0.000000 -0.000000 
5.104069 16.328979 -22.040090 -178.167655 -9.888922 -176.132609 4.123245 16.555188 6.053148 -10.439437 -15.025310 -24.635221 -0.308216 9.315973 56.351607 -0.522929 3.044109 12.307465 -11.163777 -13.219943 -14.651303 1.316012 -21.564472 12.858062 19.935171 18.316813 -42.764255 1.115610 5.592815 32.115716 5.852878 9.203651 -2.236930 -5.743558 -3.700908 12.819989 -3.539630 0.073843 -4.839866 4.414328 0.727423 -2.108405 -2.501655 -0.013123 15.731680 1.395646 -0.098977 -17.087059 3.442874 -0.128573 26.346629 -5.280531 5.797705 18.116260 8.113335 4.417007 2.299780 -82.412007 -29.162929 -3.180477 -12.966306 -14.110236 14.058198 12.570735 -15.344934 0.272702 0.000002 -0.000001 0.000002 -0.000000 0.000000 0.000000 -0.000000 -0.000000 -0.000000 -0.775936 0.992330 4.758940 69.765324 18.685294 -16.030931 24.473529 23.554247 17.697719 0.455474 11.236031 1.636709 -0.000005 0.000004 -0.000002 0.000000 0.000000 0.000000 0.000000 0.000000 0.000000 
5.137973 16.356607 -22.168619 -177.781372 -10.442501 -176.255243 4.159298 16.545828 6.211771 -10.117834 -15.288563 -25.914064 0.098841 9.162131 57.279509 -0.021634 4.071017 11.969370 -9.161277 -11.952497 -10.297304 1.567705 -21.459000 12.546030 20.381484 17.480411 -41.843304 1.418504 5.742810 32.138391 4.879201 8.863116 -3.437102 -6.524294 -1.607889 13.189587 -3.732284 -0.054572 -4.826914 4.647988 0.618141 -2.086625 -2.498485 -0.056384 15.507994 1.585574 -0.133513 -16.848574 3.565899 -0.196398 26.644150 -5.507643 5.911093 17.236895 8.103194 4.701684 2.421014 -82.392956 -28.497982 -3.633678 -12.876102 -13.647062 13.497389 13.212118 -15.041538 0.168318 0.000002 -0.000001 0.000002 0.000000 -0.000000 -0.000000 0.000000 -0.000000 0.000000 -0.599674 1.443310 4.899432 69.682091 18.944935 -16.123156 24.552369 23.375914 16.736423 1.641701 10.875640 1.715450 -0.000005 0.000004 -0.000002 -0.000000 -0.000000 0.000000 -0.000000 0.000000 0.000000 
5.166456 16.388739 -22.298048 -177.436227 -11.066350 -176.314958 3.966784 16.507731 6.274877 -9.813157 -15.244072 -27.275179 1.716114 9.342788 57.973400 -0.092078 3.966798 12.081218 -9.426865 -11.611539 -11.400035 1.890288 -21.208359 12.299846 20.474116 16.598130 -41.152692 1.964976 5.865884 32.143910 3.759028 8.246730 -4.670444 -6.366640 -1.048203 12.587141 -3.908117 -0.232359 -4.917155 4.902505 0.326723 -2.032623 -2.795088 -0.152240 15.348549 1.981652 -0.080653 -16.647864 3.653381 -0.216846 26.990052 -6.001796 6.378189 17.017211 8.183622 5.209396 2.477960 -82.292329 -27.788866 -4.029925 -12.720033 -13.213200 12.866380 13.653609 -14.564381 0.095007 0.000002 -0.000001 0.000002 -0.000000 0.000000 0.000000 -0.000000 0.000000 0.000000 -0.183671 2.212994 4.933692 69.520798 19.130247 -15.886595 24.479425 23.361732 15.607585 2.226220 9.989687 1.638346 -0.000005 0.000004 -0.000002 -0.000000 0.000000 -0.000000 -0.000000 -0.000000 -0.000000 
5.194910 16.416366 -22.419970 -177.098615 -11.755053 -176.445840 3.825536 16.292248 6.254285 -9.470763 -15.404907 -28.389076 2.879088 9.542634 58.660530 0.052114 4.313050 12.000544 -11.147891 -12.065781 -15.733581 2.048161 -20.846559 11.868152 20.786651 15.521037 -40.152019 2.260801 5.613464 31.904994 3.280701 7.954303 -5.684195 -5.756373 -1.025816 11.400752 -4.062659 -0.376366 -4.779176 5.111263 0.199756 -2.065243 -2.805815 -0.230348 15.233087 2.127440 -0.116559 -16.559213 3.787459 -0.302569 27.279077 -6.458453 6.595961 17.066997 8.084661 5.454241 2.488824 -82.205053 -27.193214 -4.160611 -12.516052 -12.837830 12.692897 14.360926 -14.673100 -0.006814 0.000002 -0.000001 0.000002 -0.000000 -0.000000 -0.000000 0.000000 0.000000 0.000000 -0.016348 2.608935 4.922611 69.372361 19.385734 -15.849934 24.512434 23.256736 16.127548 1.621431 10.299273 1.619369 -0.000005 0.000004 -0.000002 0.000000 -0.000000 0.000000 -0.000000 0.000000 -0.000000 
